<svg width="800" height="800" viewBox="0 0 800 800" fill="none" xmlns="http://www.w3.org/2000/svg">
<g clip-path="url(#clip0_4_30)">
<path d="M500 733.401V566.734C500 552.001 496.717 538.034 490.967 525.417C504.717 522.634 518.467 519.45 532.167 515.4C574.283 502.967 634.733 451.417 652.6 401.017C672.4 345.084 672.4 288.351 652.6 232.417L652.583 232.401C649.033 222.351 643.633 212.217 635.95 201.267C650.083 148.701 640.167 104.734 639.7 102.684L633.617 76.6172L606.85 76.9339C604.35 76.9672 548.85 77.9839 494.783 109.517C432.203 97.2839 367.847 97.2839 305.267 109.517C251.217 77.9839 195.717 76.9672 193.2 76.9339L166.4 76.6172L160.317 102.684C159.85 104.734 149.933 148.701 164.067 201.267C156.383 212.217 150.983 222.367 147.417 232.417C127.633 288.351 127.633 345.084 147.433 401.034C165.267 451.417 225.717 502.967 267.85 515.4C281.55 519.45 295.3 522.634 309.05 525.417C303.095 538.378 300.008 552.471 300 566.734V588.084C298.967 588.684 297.883 589.167 296.883 589.884C292.067 593.401 249.067 622.667 205.133 591.384C189.633 575.617 182.033 564.067 174.7 552.9C158.233 527.9 144.017 509.801 98.2333 486.901C90.3232 482.947 81.1664 482.297 72.7773 485.094C64.3882 487.892 57.4539 493.907 53.5 501.817C49.546 509.727 48.8963 518.884 51.6937 527.273C54.4911 535.662 60.5066 542.597 68.4166 546.55C101.6 563.134 107.433 571.967 119 589.567C127.583 602.584 138.25 618.8 159.75 640.3L163.333 643.4C191.533 664.567 220.783 672.117 247.55 672.117C265.448 672.024 283.195 668.826 300 662.667V733.551L500 733.401Z" fill="#EF4C45"/>
</g>
<defs>
<clipPath id="clip0_4_30">
<rect width="800" height="800" fill="white"/>
</clipPath>
</defs>
</svg>
