<svg width="2500" height="2500" viewBox="0 0 2500 2500" fill="none" xmlns="http://www.w3.org/2000/svg">
<g clip-path="url(#clip0_3_2)">
<path d="M833.45 1250C833.45 1019.89 1019.94 833.3 1250.05 833.3C1480.16 833.3 1666.75 1019.89 1666.75 1250C1666.75 1480.11 1480.16 1666.7 1250.05 1666.7C1019.94 1666.7 833.45 1480.11 833.45 1250ZM608.19 1250C608.19 1604.5 895.55 1891.86 1250.05 1891.86C1604.55 1891.86 1891.91 1604.5 1891.91 1250C1891.91 895.5 1604.55 608.14 1250.05 608.14C895.55 608.14 608.19 895.5 608.19 1250ZM1767.32 582.69C1767.31 612.357 1776.09 641.362 1792.57 666.036C1809.04 690.71 1832.46 709.945 1859.86 721.309C1887.27 732.673 1917.43 735.656 1946.52 729.879C1975.62 724.103 2002.36 709.828 2023.34 688.858C2044.33 667.889 2058.63 641.167 2064.43 612.072C2070.23 582.978 2067.27 552.816 2055.92 525.403C2044.58 497.989 2025.37 474.555 2000.71 458.063C1976.04 441.571 1947.05 432.762 1917.38 432.75H1917.32C1877.55 432.769 1839.42 448.57 1811.3 476.683C1783.17 504.797 1767.35 542.924 1767.32 582.69ZM745.05 2267.47C623.18 2261.92 556.94 2241.62 512.92 2224.47C454.56 2201.75 412.92 2174.69 369.14 2130.97C325.36 2087.25 298.26 2045.65 275.64 1987.29C258.48 1943.29 238.18 1877.03 232.64 1755.16C226.58 1623.4 225.37 1583.82 225.37 1250.01C225.37 916.2 226.68 876.73 232.64 744.86C238.19 622.99 258.64 556.86 275.64 512.73C298.36 454.37 325.42 412.73 369.14 368.95C412.86 325.17 454.46 298.07 512.92 275.45C556.92 258.29 623.18 237.99 745.05 232.45C876.81 226.39 916.39 225.18 1250.05 225.18C1583.71 225.18 1623.33 226.49 1755.2 232.45C1877.07 238 1943.2 258.45 1987.33 275.45C2045.69 298.07 2087.33 325.23 2131.11 368.95C2174.89 412.67 2201.89 454.37 2224.61 512.73C2241.77 556.73 2262.07 622.99 2267.61 744.86C2273.67 876.73 2274.88 916.2 2274.88 1250.01C2274.88 1583.82 2273.67 1623.29 2267.61 1755.16C2262.06 1877.03 2241.66 1943.27 2224.61 1987.29C2201.89 2045.65 2174.83 2087.29 2131.11 2130.97C2087.39 2174.65 2045.69 2201.75 1987.33 2224.47C1943.33 2241.63 1877.07 2261.93 1755.2 2267.47C1623.44 2273.53 1583.86 2274.74 1250.05 2274.74C916.24 2274.74 876.77 2273.53 745.05 2267.47ZM734.7 7.57C601.63 13.63 510.7 34.73 431.29 65.63C349.05 97.54 279.43 140.35 209.86 209.81C140.29 279.27 97.59 349 65.68 431.24C34.78 510.7 13.68 601.58 7.62005 734.65C1.46005 867.93 0.0500488 910.54 0.0500488 1250C0.0500488 1589.46 1.46005 1632.07 7.62005 1765.35C13.68 1898.43 34.78 1989.3 65.68 2068.76C97.59 2150.95 140.3 2220.76 209.86 2290.19C279.42 2359.62 349.05 2402.37 431.29 2434.37C510.85 2465.27 601.63 2486.37 734.7 2492.43C868.05 2498.49 910.59 2500 1250.05 2500C1589.51 2500 1632.12 2498.59 1765.4 2492.43C1898.48 2486.37 1989.35 2465.27 2068.81 2434.37C2151 2402.37 2220.67 2359.65 2290.24 2290.19C2359.81 2220.73 2402.42 2150.95 2434.42 2068.76C2465.32 1989.3 2486.52 1898.42 2492.48 1765.35C2498.54 1631.97 2499.95 1589.46 2499.95 1250C2499.95 910.54 2498.54 867.93 2492.48 734.65C2486.42 601.57 2465.32 510.65 2434.42 431.24C2402.42 349.05 2359.7 279.38 2290.24 209.81C2220.78 140.24 2151 97.54 2068.91 65.63C1989.35 34.73 1898.47 13.53 1765.5 7.57C1632.22 1.51 1589.61 0 1250.15 0C910.69 0 868.05 1.41 734.7 7.57Z" fill="#FF6B6B"/>
<path d="M833.45 1250C833.45 1019.89 1019.94 833.3 1250.05 833.3C1480.16 833.3 1666.75 1019.89 1666.75 1250C1666.75 1480.11 1480.16 1666.7 1250.05 1666.7C1019.94 1666.7 833.45 1480.11 833.45 1250ZM608.19 1250C608.19 1604.5 895.55 1891.86 1250.05 1891.86C1604.55 1891.86 1891.91 1604.5 1891.91 1250C1891.91 895.5 1604.55 608.14 1250.05 608.14C895.55 608.14 608.19 895.5 608.19 1250ZM1767.32 582.69C1767.31 612.357 1776.09 641.362 1792.57 666.036C1809.04 690.71 1832.46 709.945 1859.86 721.309C1887.27 732.673 1917.43 735.656 1946.52 729.879C1975.62 724.103 2002.36 709.828 2023.34 688.858C2044.33 667.889 2058.63 641.167 2064.43 612.072C2070.23 582.978 2067.27 552.816 2055.92 525.403C2044.58 497.989 2025.37 474.555 2000.71 458.063C1976.04 441.571 1947.05 432.762 1917.38 432.75H1917.32C1877.55 432.769 1839.42 448.57 1811.3 476.683C1783.17 504.797 1767.35 542.924 1767.32 582.69ZM745.05 2267.47C623.18 2261.92 556.94 2241.62 512.92 2224.47C454.56 2201.75 412.92 2174.69 369.14 2130.97C325.36 2087.25 298.26 2045.65 275.64 1987.29C258.48 1943.29 238.18 1877.03 232.64 1755.16C226.58 1623.4 225.37 1583.82 225.37 1250.01C225.37 916.2 226.68 876.73 232.64 744.86C238.19 622.99 258.64 556.86 275.64 512.73C298.36 454.37 325.42 412.73 369.14 368.95C412.86 325.17 454.46 298.07 512.92 275.45C556.92 258.29 623.18 237.99 745.05 232.45C876.81 226.39 916.39 225.18 1250.05 225.18C1583.71 225.18 1623.33 226.49 1755.2 232.45C1877.07 238 1943.2 258.45 1987.33 275.45C2045.69 298.07 2087.33 325.23 2131.11 368.95C2174.89 412.67 2201.89 454.37 2224.61 512.73C2241.77 556.73 2262.07 622.99 2267.61 744.86C2273.67 876.73 2274.88 916.2 2274.88 1250.01C2274.88 1583.82 2273.67 1623.29 2267.61 1755.16C2262.06 1877.03 2241.66 1943.27 2224.61 1987.29C2201.89 2045.65 2174.83 2087.29 2131.11 2130.97C2087.39 2174.65 2045.69 2201.75 1987.33 2224.47C1943.33 2241.63 1877.07 2261.93 1755.2 2267.47C1623.44 2273.53 1583.86 2274.74 1250.05 2274.74C916.24 2274.74 876.77 2273.53 745.05 2267.47ZM734.7 7.57C601.63 13.63 510.7 34.73 431.29 65.63C349.05 97.54 279.43 140.35 209.86 209.81C140.29 279.27 97.59 349 65.68 431.24C34.78 510.7 13.68 601.58 7.62005 734.65C1.46005 867.93 0.0500488 910.54 0.0500488 1250C0.0500488 1589.46 1.46005 1632.07 7.62005 1765.35C13.68 1898.43 34.78 1989.3 65.68 2068.76C97.59 2150.95 140.3 2220.76 209.86 2290.19C279.42 2359.62 349.05 2402.37 431.29 2434.37C510.85 2465.27 601.63 2486.37 734.7 2492.43C868.05 2498.49 910.59 2500 1250.05 2500C1589.51 2500 1632.12 2498.59 1765.4 2492.43C1898.48 2486.37 1989.35 2465.27 2068.81 2434.37C2151 2402.37 2220.67 2359.65 2290.24 2290.19C2359.81 2220.73 2402.42 2150.95 2434.42 2068.76C2465.32 1989.3 2486.52 1898.42 2492.48 1765.35C2498.54 1631.97 2499.95 1589.46 2499.95 1250C2499.95 910.54 2498.54 867.93 2492.48 734.65C2486.42 601.57 2465.32 510.65 2434.42 431.24C2402.42 349.05 2359.7 279.38 2290.24 209.81C2220.78 140.24 2151 97.54 2068.91 65.63C1989.35 34.73 1898.47 13.53 1765.5 7.57C1632.22 1.51 1589.61 0 1250.15 0C910.69 0 868.05 1.41 734.7 7.57Z" fill="#EF4C45"/>
</g>
<defs>
<clipPath id="clip0_3_2">
<rect width="2500" height="2500" fill="white"/>
</clipPath>
</defs>
</svg>
