<svg width="1080" height="1080" viewBox="0 0 1080 1080" fill="none" xmlns="http://www.w3.org/2000/svg">
<g clip-path="url(#clip0_4_6)">
<path d="M152.05 1079.51C139.685 1079.51 131.957 1071.78 131.957 1059.41V5.30281C131.957 0.666018 135.048 -2.42527 139.685 -2.42527H430.261C473.539 -2.42527 499.814 -2.42527 518.361 -0.879672C886.218 33.1239 943.406 467.442 674.469 601.911C649.739 614.276 645.102 634.369 659.013 656.008L937.224 1062.51C944.952 1073.32 940.315 1079.51 927.95 1079.51H747.113C734.748 1079.51 722.383 1073.32 714.655 1062.51L459.628 683.829C444.172 662.19 417.896 648.28 391.621 648.28H360.708C334.433 648.28 317.431 665.281 317.431 691.557V1059.41C317.431 1071.78 309.703 1079.51 297.338 1079.51H152.05ZM317.431 217.052V428.802C317.431 455.077 334.433 473.625 360.708 473.625H473.539C708.472 473.625 706.927 172.23 473.539 172.23H360.708C334.433 172.23 317.431 190.777 317.431 217.052Z" fill="#EF4C45"/>
</g>
<defs>
<clipPath id="clip0_4_6">
<rect width="1080" height="1080" fill="white"/>
</clipPath>
</defs>
</svg>
